<svg width="1653" height="1001" xmlns="http://www.w3.org/2000/svg" xmlns:xlink="http://www.w3.org/1999/xlink" xml:space="preserve" overflow="hidden"><defs><clipPath id="clip0"><rect x="1765" y="83" width="1653" height="1001"/></clipPath></defs><g clip-path="url(#clip0)" transform="translate(-1765 -83)"><rect x="1766" y="83.9999" width="1650" height="998" fill="#FFFFFF"/><g><path d="M2003.5 926.5 3324.5 926.5M2003.5 830.527 3324.5 830.527M2003.5 734.524 3324.5 734.524M2003.5 638.521 3324.5 638.521M2003.5 542.518 3324.5 542.518M2003.5 445.515 3324.5 445.515M2003.5 349.512 3324.5 349.512" stroke="#D9D9D9" stroke-width="3.4375" stroke-linejoin="round" stroke-miterlimit="10" fill="none"/></g><g><path d="M2243.57 253.5 2243.57 926.5M2483.58 253.5 2483.58 926.5M2723.59 253.5 2723.59 926.5M2963.6 253.5 2963.6 926.5M3204.5 253.5 3204.5 926.5" stroke="#D9D9D9" stroke-width="3.4375" stroke-linejoin="round" stroke-miterlimit="10" fill="none"/></g><g><path d="M0 0 0.000360892 673" stroke="#BFBFBF" stroke-width="3.4375" stroke-linejoin="round" stroke-miterlimit="10" fill="none" fill-rule="evenodd" transform="matrix(1 0 0 -1 2003.5 926.5)"/></g><g><path d="M2003.5 253.5 3324.5 253.5" stroke="#BFBFBF" stroke-width="3.4375" stroke-linejoin="round" stroke-miterlimit="10" fill="none" fill-rule="evenodd"/></g><g><path d="M2003.5 882.5 2123.57 860.528 2243.57 819.527 2363.58 768.525 2483.58 711.524 2603.59 659.522 2723.59 589.52 2843.59 538.518 2963.6 487.516 3083.6 428.514 3204.61 369.512 3324.5 311.5" stroke="#156082" stroke-width="6.875" stroke-linecap="round" stroke-linejoin="round" stroke-miterlimit="10" fill="none"/></g><g><path d="M2014.54 882.265C2014.54 888.34 2009.62 893.264 2003.54 893.264 1997.47 893.264 1992.54 888.34 1992.54 882.265 1992.54 876.19 1997.47 871.265 2003.54 871.265 2009.62 871.265 2014.54 876.19 2014.54 882.265Z" stroke="#156082" stroke-width="3.4375" stroke-linejoin="round" stroke-miterlimit="10" fill="#156082"/><path d="M2134.54 860.265C2134.54 866.34 2129.62 871.264 2123.54 871.264 2117.47 871.264 2112.54 866.34 2112.54 860.265 2112.54 854.19 2117.47 849.265 2123.54 849.265 2129.62 849.265 2134.54 854.19 2134.54 860.265Z" stroke="#156082" stroke-width="3.4375" stroke-linejoin="round" stroke-miterlimit="10" fill="#156082"/><path d="M2254.54 820.265C2254.54 826.34 2249.62 831.264 2243.54 831.264 2237.47 831.264 2232.54 826.34 2232.54 820.265 2232.54 814.19 2237.47 809.265 2243.54 809.265 2249.62 809.265 2254.54 814.19 2254.54 820.265Z" stroke="#156082" stroke-width="3.4375" stroke-linejoin="round" stroke-miterlimit="10" fill="#156082"/><path d="M2374.54 769.265C2374.54 775.34 2369.62 780.264 2363.54 780.264 2357.47 780.264 2352.54 775.34 2352.54 769.265 2352.54 763.19 2357.47 758.265 2363.54 758.265 2369.62 758.265 2374.54 763.19 2374.54 769.265Z" stroke="#156082" stroke-width="3.4375" stroke-linejoin="round" stroke-miterlimit="10" fill="#156082"/><path d="M2494.54 711.265C2494.54 717.34 2489.62 722.264 2483.54 722.264 2477.47 722.264 2472.54 717.34 2472.54 711.265 2472.54 705.19 2477.47 700.265 2483.54 700.265 2489.62 700.265 2494.54 705.19 2494.54 711.265Z" stroke="#156082" stroke-width="3.4375" stroke-linejoin="round" stroke-miterlimit="10" fill="#156082"/><path d="M2614.54 659.265C2614.54 665.34 2609.62 670.264 2603.54 670.264 2597.47 670.264 2592.54 665.34 2592.54 659.265 2592.54 653.19 2597.47 648.265 2603.54 648.265 2609.62 648.265 2614.54 653.19 2614.54 659.265Z" stroke="#156082" stroke-width="3.4375" stroke-linejoin="round" stroke-miterlimit="10" fill="#156082"/><path d="M2734.54 589.265C2734.54 595.34 2729.62 600.264 2723.54 600.264 2717.47 600.264 2712.54 595.34 2712.54 589.265 2712.54 583.19 2717.47 578.265 2723.54 578.265 2729.62 578.265 2734.54 583.19 2734.54 589.265Z" stroke="#156082" stroke-width="3.4375" stroke-linejoin="round" stroke-miterlimit="10" fill="#156082"/><path d="M2854.54 538.265C2854.54 544.34 2849.62 549.264 2843.54 549.264 2837.47 549.264 2832.54 544.34 2832.54 538.265 2832.54 532.19 2837.47 527.265 2843.54 527.265 2849.62 527.265 2854.54 532.19 2854.54 538.265Z" stroke="#156082" stroke-width="3.4375" stroke-linejoin="round" stroke-miterlimit="10" fill="#156082"/><path d="M2975.54 487.265C2975.54 493.34 2970.62 498.264 2964.54 498.264 2958.47 498.264 2953.54 493.34 2953.54 487.265 2953.54 481.19 2958.47 476.265 2964.54 476.265 2970.62 476.265 2975.54 481.19 2975.54 487.265Z" stroke="#156082" stroke-width="3.4375" stroke-linejoin="round" stroke-miterlimit="10" fill="#156082"/><path d="M3095.54 428.265C3095.54 434.34 3090.62 439.264 3084.54 439.264 3078.47 439.264 3073.54 434.34 3073.54 428.265 3073.54 422.19 3078.47 417.265 3084.54 417.265 3090.62 417.265 3095.54 422.19 3095.54 428.265Z" stroke="#156082" stroke-width="3.4375" stroke-linejoin="round" stroke-miterlimit="10" fill="#156082"/><path d="M3215.54 369.265C3215.54 375.34 3210.62 380.264 3204.54 380.264 3198.47 380.264 3193.54 375.34 3193.54 369.265 3193.54 363.19 3198.47 358.265 3204.54 358.265 3210.62 358.265 3215.54 363.19 3215.54 369.265Z" stroke="#156082" stroke-width="3.4375" stroke-linejoin="round" stroke-miterlimit="10" fill="#156082"/><path d="M3335.54 311.265C3335.54 317.34 3330.62 322.264 3324.54 322.264 3318.47 322.264 3313.54 317.34 3313.54 311.265 3313.54 305.19 3318.47 300.265 3324.54 300.265 3330.62 300.265 3335.54 305.19 3335.54 311.265Z" stroke="#156082" stroke-width="3.4375" stroke-linejoin="round" stroke-miterlimit="10" fill="#156082"/></g><g><path d="M2003.5 920.5 2123.57 877.529 2243.57 849.528 2363.58 811.527 2483.58 758.525 2603.59 699.523 2723.59 649.521 2843.59 594.52 2963.6 535.518 3083.6 478.516 3204.61 425.514 3324.5 363.5" stroke="#E97132" stroke-width="6.875" stroke-linecap="round" stroke-linejoin="round" stroke-miterlimit="10" fill="none"/></g><g><path d="M2014.54 920.265C2014.54 926.34 2009.62 931.264 2003.54 931.264 1997.47 931.264 1992.54 926.34 1992.54 920.265 1992.54 914.19 1997.47 909.265 2003.54 909.265 2009.62 909.265 2014.54 914.19 2014.54 920.265Z" stroke="#E97132" stroke-width="3.4375" stroke-linejoin="round" stroke-miterlimit="10" fill="#E97132"/><path d="M2134.54 877.265C2134.54 883.34 2129.62 888.264 2123.54 888.264 2117.47 888.264 2112.54 883.34 2112.54 877.265 2112.54 871.19 2117.47 866.265 2123.54 866.265 2129.62 866.265 2134.54 871.19 2134.54 877.265Z" stroke="#E97132" stroke-width="3.4375" stroke-linejoin="round" stroke-miterlimit="10" fill="#E97132"/><path d="M2254.54 849.265C2254.54 855.34 2249.62 860.264 2243.54 860.264 2237.47 860.264 2232.54 855.34 2232.54 849.265 2232.54 843.19 2237.47 838.265 2243.54 838.265 2249.62 838.265 2254.54 843.19 2254.54 849.265Z" stroke="#E97132" stroke-width="3.4375" stroke-linejoin="round" stroke-miterlimit="10" fill="#E97132"/><path d="M2374.54 811.265C2374.54 817.34 2369.62 822.264 2363.54 822.264 2357.47 822.264 2352.54 817.34 2352.54 811.265 2352.54 805.19 2357.47 800.265 2363.54 800.265 2369.62 800.265 2374.54 805.19 2374.54 811.265Z" stroke="#E97132" stroke-width="3.4375" stroke-linejoin="round" stroke-miterlimit="10" fill="#E97132"/><path d="M2494.54 758.265C2494.54 764.34 2489.62 769.264 2483.54 769.264 2477.47 769.264 2472.54 764.34 2472.54 758.265 2472.54 752.19 2477.47 747.265 2483.54 747.265 2489.62 747.265 2494.54 752.19 2494.54 758.265Z" stroke="#E97132" stroke-width="3.4375" stroke-linejoin="round" stroke-miterlimit="10" fill="#E97132"/><path d="M2614.54 699.265C2614.54 705.34 2609.62 710.264 2603.54 710.264 2597.47 710.264 2592.54 705.34 2592.54 699.265 2592.54 693.19 2597.47 688.265 2603.54 688.265 2609.62 688.265 2614.54 693.19 2614.54 699.265Z" stroke="#E97132" stroke-width="3.4375" stroke-linejoin="round" stroke-miterlimit="10" fill="#E97132"/><path d="M2734.54 649.265C2734.54 655.34 2729.62 660.265 2723.54 660.265 2717.47 660.265 2712.54 655.34 2712.54 649.265 2712.54 643.19 2717.47 638.265 2723.54 638.265 2729.62 638.265 2734.54 643.19 2734.54 649.265Z" stroke="#E97132" stroke-width="3.4375" stroke-linejoin="round" stroke-miterlimit="10" fill="#E97132"/><path d="M2854.54 594.265C2854.54 600.34 2849.62 605.265 2843.54 605.265 2837.47 605.265 2832.54 600.34 2832.54 594.265 2832.54 588.19 2837.47 583.265 2843.54 583.265 2849.62 583.265 2854.54 588.19 2854.54 594.265Z" stroke="#E97132" stroke-width="3.4375" stroke-linejoin="round" stroke-miterlimit="10" fill="#E97132"/><path d="M2975.54 535.265C2975.54 541.34 2970.62 546.264 2964.54 546.264 2958.47 546.264 2953.54 541.34 2953.54 535.265 2953.54 529.19 2958.47 524.265 2964.54 524.265 2970.62 524.265 2975.54 529.19 2975.54 535.265Z" stroke="#E97132" stroke-width="3.4375" stroke-linejoin="round" stroke-miterlimit="10" fill="#E97132"/><path d="M3095.54 478.265C3095.54 484.34 3090.62 489.264 3084.54 489.264 3078.47 489.264 3073.54 484.34 3073.54 478.265 3073.54 472.19 3078.47 467.265 3084.54 467.265 3090.62 467.265 3095.54 472.19 3095.54 478.265Z" stroke="#E97132" stroke-width="3.4375" stroke-linejoin="round" stroke-miterlimit="10" fill="#E97132"/><path d="M3215.54 425.265C3215.54 431.34 3210.62 436.264 3204.54 436.264 3198.47 436.264 3193.54 431.34 3193.54 425.265 3193.54 419.19 3198.47 414.265 3204.54 414.265 3210.62 414.265 3215.54 419.19 3215.54 425.265Z" stroke="#E97132" stroke-width="3.4375" stroke-linejoin="round" stroke-miterlimit="10" fill="#E97132"/><path d="M3335.54 363.265C3335.54 369.34 3330.62 374.265 3324.54 374.265 3318.47 374.265 3313.54 369.34 3313.54 363.265 3313.54 357.19 3318.47 352.265 3324.54 352.265 3330.62 352.265 3335.54 357.19 3335.54 363.265Z" stroke="#E97132" stroke-width="3.4375" stroke-linejoin="round" stroke-miterlimit="10" fill="#E97132"/></g><g><path d="M2003.5 900.5 2123.57 860.528 2243.57 819.527 2363.58 778.526 2483.58 728.524 2603.59 677.522 2723.59 619.521 2843.59 568.519 2963.6 509.517 3083.6 453.515 3204.61 399.513 3324.5 338.5" stroke="#196B24" stroke-width="6.875" stroke-linecap="round" stroke-linejoin="round" stroke-miterlimit="10" fill="none"/></g><g><path d="M2014.54 900.265C2014.54 906.34 2009.62 911.264 2003.54 911.264 1997.47 911.264 1992.54 906.34 1992.54 900.265 1992.54 894.19 1997.47 889.265 2003.54 889.265 2009.62 889.265 2014.54 894.19 2014.54 900.265Z" stroke="#196B24" stroke-width="3.4375" stroke-linejoin="round" stroke-miterlimit="10" fill="#196B24"/><path d="M2134.54 860.265C2134.54 866.34 2129.62 871.264 2123.54 871.264 2117.47 871.264 2112.54 866.34 2112.54 860.265 2112.54 854.19 2117.47 849.265 2123.54 849.265 2129.62 849.265 2134.54 854.19 2134.54 860.265Z" stroke="#196B24" stroke-width="3.4375" stroke-linejoin="round" stroke-miterlimit="10" fill="#196B24"/><path d="M2254.54 819.265C2254.54 825.34 2249.62 830.264 2243.54 830.264 2237.47 830.264 2232.54 825.34 2232.54 819.265 2232.54 813.19 2237.47 808.265 2243.54 808.265 2249.62 808.265 2254.54 813.19 2254.54 819.265Z" stroke="#196B24" stroke-width="3.4375" stroke-linejoin="round" stroke-miterlimit="10" fill="#196B24"/><path d="M2374.54 779.265C2374.54 785.34 2369.62 790.264 2363.54 790.264 2357.47 790.264 2352.54 785.34 2352.54 779.265 2352.54 773.19 2357.47 768.265 2363.54 768.265 2369.62 768.265 2374.54 773.19 2374.54 779.265Z" stroke="#196B24" stroke-width="3.4375" stroke-linejoin="round" stroke-miterlimit="10" fill="#196B24"/><path d="M2494.54 728.265C2494.54 734.34 2489.62 739.264 2483.54 739.264 2477.47 739.264 2472.54 734.34 2472.54 728.265 2472.54 722.19 2477.47 717.265 2483.54 717.265 2489.62 717.265 2494.54 722.19 2494.54 728.265Z" stroke="#196B24" stroke-width="3.4375" stroke-linejoin="round" stroke-miterlimit="10" fill="#196B24"/><path d="M2614.54 677.265C2614.54 683.34 2609.62 688.264 2603.54 688.264 2597.47 688.264 2592.54 683.34 2592.54 677.265 2592.54 671.19 2597.47 666.265 2603.54 666.265 2609.62 666.265 2614.54 671.19 2614.54 677.265Z" stroke="#196B24" stroke-width="3.4375" stroke-linejoin="round" stroke-miterlimit="10" fill="#196B24"/><path d="M2734.54 619.265C2734.54 625.34 2729.62 630.264 2723.54 630.264 2717.47 630.264 2712.54 625.34 2712.54 619.265 2712.54 613.19 2717.47 608.265 2723.54 608.265 2729.62 608.265 2734.54 613.19 2734.54 619.265Z" stroke="#196B24" stroke-width="3.4375" stroke-linejoin="round" stroke-miterlimit="10" fill="#196B24"/><path d="M2854.54 568.265C2854.54 574.34 2849.62 579.264 2843.54 579.264 2837.47 579.264 2832.54 574.34 2832.54 568.265 2832.54 562.19 2837.47 557.265 2843.54 557.265 2849.62 557.265 2854.54 562.19 2854.54 568.265Z" stroke="#196B24" stroke-width="3.4375" stroke-linejoin="round" stroke-miterlimit="10" fill="#196B24"/><path d="M2975.54 509.265C2975.54 515.34 2970.62 520.264 2964.54 520.264 2958.47 520.264 2953.54 515.34 2953.54 509.265 2953.54 503.19 2958.47 498.265 2964.54 498.265 2970.62 498.265 2975.54 503.19 2975.54 509.265Z" stroke="#196B24" stroke-width="3.4375" stroke-linejoin="round" stroke-miterlimit="10" fill="#196B24"/><path d="M3095.54 453.265C3095.54 459.34 3090.62 464.264 3084.54 464.264 3078.47 464.264 3073.54 459.34 3073.54 453.265 3073.54 447.19 3078.47 442.265 3084.54 442.265 3090.62 442.265 3095.54 447.19 3095.54 453.265Z" stroke="#196B24" stroke-width="3.4375" stroke-linejoin="round" stroke-miterlimit="10" fill="#196B24"/><path d="M3215.54 399.265C3215.54 405.34 3210.62 410.264 3204.54 410.264 3198.47 410.264 3193.54 405.34 3193.54 399.265 3193.54 393.19 3198.47 388.265 3204.54 388.265 3210.62 388.265 3215.54 393.19 3215.54 399.265Z" stroke="#196B24" stroke-width="3.4375" stroke-linejoin="round" stroke-miterlimit="10" fill="#196B24"/><path d="M3335.54 338.265C3335.54 344.34 3330.62 349.264 3324.54 349.264 3318.47 349.264 3313.54 344.34 3313.54 338.265 3313.54 332.19 3318.47 327.265 3324.54 327.265 3330.62 327.265 3335.54 332.19 3335.54 338.265Z" stroke="#196B24" stroke-width="3.4375" stroke-linejoin="round" stroke-miterlimit="10" fill="#196B24"/></g><g><path d="M2003.5 863.5 2123.57 855.528 2243.57 830.527 2363.58 789.526 2483.58 757.525 2603.59 723.524 2723.59 693.523 2843.59 659.522 2963.6 626.521 3083.6 598.52 3204.61 565.519 3324.5 537.5" stroke="#0F9ED5" stroke-width="6.875" stroke-linecap="round" stroke-linejoin="round" stroke-miterlimit="10" fill="none"/></g><g><path d="M2014.54 863.265C2014.54 869.34 2009.62 874.264 2003.54 874.264 1997.47 874.264 1992.54 869.34 1992.54 863.265 1992.54 857.19 1997.47 852.265 2003.54 852.265 2009.62 852.265 2014.54 857.19 2014.54 863.265Z" stroke="#0F9ED5" stroke-width="3.4375" stroke-linejoin="round" stroke-miterlimit="10" fill="#0F9ED5"/><path d="M2134.54 855.265C2134.54 861.34 2129.62 866.264 2123.54 866.264 2117.47 866.264 2112.54 861.34 2112.54 855.265 2112.54 849.19 2117.47 844.265 2123.54 844.265 2129.62 844.265 2134.54 849.19 2134.54 855.265Z" stroke="#0F9ED5" stroke-width="3.4375" stroke-linejoin="round" stroke-miterlimit="10" fill="#0F9ED5"/><path d="M2254.54 830.265C2254.54 836.34 2249.62 841.264 2243.54 841.264 2237.47 841.264 2232.54 836.34 2232.54 830.265 2232.54 824.19 2237.47 819.265 2243.54 819.265 2249.62 819.265 2254.54 824.19 2254.54 830.265Z" stroke="#0F9ED5" stroke-width="3.4375" stroke-linejoin="round" stroke-miterlimit="10" fill="#0F9ED5"/><path d="M2374.54 789.265C2374.54 795.34 2369.62 800.264 2363.54 800.264 2357.47 800.264 2352.54 795.34 2352.54 789.265 2352.54 783.19 2357.47 778.265 2363.54 778.265 2369.62 778.265 2374.54 783.19 2374.54 789.265Z" stroke="#0F9ED5" stroke-width="3.4375" stroke-linejoin="round" stroke-miterlimit="10" fill="#0F9ED5"/><path d="M2494.54 757.265C2494.54 763.34 2489.62 768.264 2483.54 768.264 2477.47 768.264 2472.54 763.34 2472.54 757.265 2472.54 751.19 2477.47 746.265 2483.54 746.265 2489.62 746.265 2494.54 751.19 2494.54 757.265Z" stroke="#0F9ED5" stroke-width="3.4375" stroke-linejoin="round" stroke-miterlimit="10" fill="#0F9ED5"/><path d="M2614.54 723.265C2614.54 729.34 2609.62 734.264 2603.54 734.264 2597.47 734.264 2592.54 729.34 2592.54 723.265 2592.54 717.19 2597.47 712.265 2603.54 712.265 2609.62 712.265 2614.54 717.19 2614.54 723.265Z" stroke="#0F9ED5" stroke-width="3.4375" stroke-linejoin="round" stroke-miterlimit="10" fill="#0F9ED5"/><path d="M2734.54 693.265C2734.54 699.34 2729.62 704.265 2723.54 704.265 2717.47 704.265 2712.54 699.34 2712.54 693.265 2712.54 687.19 2717.47 682.265 2723.54 682.265 2729.62 682.265 2734.54 687.19 2734.54 693.265Z" stroke="#0F9ED5" stroke-width="3.4375" stroke-linejoin="round" stroke-miterlimit="10" fill="#0F9ED5"/><path d="M2854.54 659.265C2854.54 665.34 2849.62 670.264 2843.54 670.264 2837.47 670.264 2832.54 665.34 2832.54 659.265 2832.54 653.19 2837.47 648.265 2843.54 648.265 2849.62 648.265 2854.54 653.19 2854.54 659.265Z" stroke="#0F9ED5" stroke-width="3.4375" stroke-linejoin="round" stroke-miterlimit="10" fill="#0F9ED5"/><path d="M2975.54 626.265C2975.54 632.34 2970.62 637.264 2964.54 637.264 2958.47 637.264 2953.54 632.34 2953.54 626.265 2953.54 620.19 2958.47 615.265 2964.54 615.265 2970.62 615.265 2975.54 620.19 2975.54 626.265Z" stroke="#0F9ED5" stroke-width="3.4375" stroke-linejoin="round" stroke-miterlimit="10" fill="#0F9ED5"/><path d="M3095.54 598.265C3095.54 604.34 3090.62 609.264 3084.54 609.264 3078.47 609.264 3073.54 604.34 3073.54 598.265 3073.54 592.19 3078.47 587.265 3084.54 587.265 3090.62 587.265 3095.54 592.19 3095.54 598.265Z" stroke="#0F9ED5" stroke-width="3.4375" stroke-linejoin="round" stroke-miterlimit="10" fill="#0F9ED5"/><path d="M3215.54 565.265C3215.54 571.34 3210.62 576.264 3204.54 576.264 3198.47 576.264 3193.54 571.34 3193.54 565.265 3193.54 559.19 3198.47 554.265 3204.54 554.265 3210.62 554.265 3215.54 559.19 3215.54 565.265Z" stroke="#0F9ED5" stroke-width="3.4375" stroke-linejoin="round" stroke-miterlimit="10" fill="#0F9ED5"/><path d="M3335.54 537.265C3335.54 543.34 3330.62 548.264 3324.54 548.264 3318.47 548.264 3313.54 543.34 3313.54 537.265 3313.54 531.19 3318.47 526.265 3324.54 526.265 3330.62 526.265 3335.54 531.19 3335.54 537.265Z" stroke="#0F9ED5" stroke-width="3.4375" stroke-linejoin="round" stroke-miterlimit="10" fill="#0F9ED5"/></g><g><text fill="#595959" font-family="Aptos Narrow,Aptos Narrow_MSFontService,sans-serif" font-weight="400" font-stretch="semi-condensed" font-size="41" transform="matrix(1 0 0 1 1816.74 938)">1,00E-07</text></g><g><text fill="#595959" font-family="Aptos Narrow,Aptos Narrow_MSFontService,sans-serif" font-weight="400" font-stretch="semi-condensed" font-size="41" transform="matrix(1 0 0 1 1816.74 842)">1,00E-06</text></g><g><text fill="#595959" font-family="Aptos Narrow,Aptos Narrow_MSFontService,sans-serif" font-weight="400" font-stretch="semi-condensed" font-size="41" transform="matrix(1 0 0 1 1816.74 746)">1,00E-05</text></g><g><text fill="#595959" font-family="Aptos Narrow,Aptos Narrow_MSFontService,sans-serif" font-weight="400" font-stretch="semi-condensed" font-size="41" transform="matrix(1 0 0 1 1816.74 650)">1,00E-04</text></g><g><text fill="#595959" font-family="Aptos Narrow,Aptos Narrow_MSFontService,sans-serif" font-weight="400" font-stretch="semi-condensed" font-size="41" transform="matrix(1 0 0 1 1816.74 554)">1,00E-03</text></g><g><text fill="#595959" font-family="Aptos Narrow,Aptos Narrow_MSFontService,sans-serif" font-weight="400" font-stretch="semi-condensed" font-size="41" transform="matrix(1 0 0 1 1816.74 458)">1,00E-02</text></g><g><text fill="#595959" font-family="Aptos Narrow,Aptos Narrow_MSFontService,sans-serif" font-weight="400" font-stretch="semi-condensed" font-size="41" transform="matrix(1 0 0 1 1816.74 361)">1,00E-01</text></g><g><text fill="#595959" font-family="Aptos Narrow,Aptos Narrow_MSFontService,sans-serif" font-weight="400" font-stretch="semi-condensed" font-size="41" transform="matrix(1 0 0 1 1808.46 265)">1,00E+00</text></g><g><text fill="#595959" font-family="Aptos Narrow,Aptos Narrow_MSFontService,sans-serif" font-weight="400" font-stretch="semi-condensed" font-size="41" transform="matrix(1 0 0 1 1993.24 319)">4</text></g><g><text fill="#595959" font-family="Aptos Narrow,Aptos Narrow_MSFontService,sans-serif" font-weight="400" font-stretch="semi-condensed" font-size="41" transform="matrix(1 0 0 1 2222.87 319)">16</text></g><g><text fill="#595959" font-family="Aptos Narrow,Aptos Narrow_MSFontService,sans-serif" font-weight="400" font-stretch="semi-condensed" font-size="41" transform="matrix(1 0 0 1 2462.95 319)">64</text></g><g><text fill="#595959" font-family="Aptos Narrow,Aptos Narrow_MSFontService,sans-serif" font-weight="400" font-stretch="semi-condensed" font-size="41" transform="matrix(1 0 0 1 2692.59 319)">256</text></g><g><text fill="#595959" font-family="Aptos Narrow,Aptos Narrow_MSFontService,sans-serif" font-weight="400" font-stretch="semi-condensed" font-size="41" transform="matrix(1 0 0 1 2922.22 319)">1024</text></g><g><text fill="#595959" font-family="Aptos Narrow,Aptos Narrow_MSFontService,sans-serif" font-weight="400" font-stretch="semi-condensed" font-size="41" transform="matrix(1 0 0 1 3162.31 319)">4096</text></g><g><text fill="#595959" font-family="Aptos Narrow,Aptos Narrow_MSFontService,sans-serif" font-weight="400" font-stretch="semi-condensed" font-size="64" transform="matrix(1 0 0 1 2299.81 178)">Confronto velocità sort</text></g><g><path d="M2058.5 1015.5 2146.5 1015.5" stroke="#156082" stroke-width="6.875" stroke-linecap="round" stroke-linejoin="round" stroke-miterlimit="10" fill="none" fill-rule="evenodd"/></g><g><path d="M2113 1015C2113 1021.07 2108.07 1026 2102 1026 2095.92 1026 2091 1021.07 2091 1015 2091 1008.92 2095.92 1004 2102 1004 2108.07 1004 2113 1008.92 2113 1015Z" stroke="#156082" stroke-width="3.4375" stroke-linejoin="round" stroke-miterlimit="10" fill="#156082"/></g><g><text fill="#595959" font-family="Aptos Narrow,Aptos Narrow_MSFontService,sans-serif" font-weight="400" font-stretch="semi-condensed" font-size="41" transform="matrix(1 0 0 1 2155.31 1027)">Bubble</text></g><g><path d="M2323.5 1015.5 2411.5 1015.5" stroke="#E97132" stroke-width="6.875" stroke-linecap="round" stroke-linejoin="round" stroke-miterlimit="10" fill="none" fill-rule="evenodd"/></g><g><path d="M2378 1015C2378 1021.07 2373.07 1026 2367 1026 2360.92 1026 2356 1021.07 2356 1015 2356 1008.92 2360.92 1004 2367 1004 2373.07 1004 2378 1008.92 2378 1015Z" stroke="#E97132" stroke-width="3.4375" stroke-linejoin="round" stroke-miterlimit="10" fill="#E97132"/></g><g><text fill="#595959" font-family="Aptos Narrow,Aptos Narrow_MSFontService,sans-serif" font-weight="400" font-stretch="semi-condensed" font-size="41" transform="matrix(1 0 0 1 2420.71 1027)">Insertion</text></g><g><path d="M2617.5 1015.5 2705.5 1015.5" stroke="#196B24" stroke-width="6.875" stroke-linecap="round" stroke-linejoin="round" stroke-miterlimit="10" fill="none" fill-rule="evenodd"/></g><g><path d="M2672 1015C2672 1021.07 2667.08 1026 2661 1026 2654.93 1026 2650 1021.07 2650 1015 2650 1008.92 2654.93 1004 2661 1004 2667.08 1004 2672 1008.92 2672 1015Z" stroke="#196B24" stroke-width="3.4375" stroke-linejoin="round" stroke-miterlimit="10" fill="#196B24"/></g><g><text fill="#595959" font-family="Aptos Narrow,Aptos Narrow_MSFontService,sans-serif" font-weight="400" font-stretch="semi-condensed" font-size="41" transform="matrix(1 0 0 1 2714.97 1027)">Selection</text></g><g><path d="M2921.5 1015.5 3009.5 1015.5" stroke="#0F9ED5" stroke-width="6.875" stroke-linecap="round" stroke-linejoin="round" stroke-miterlimit="10" fill="none" fill-rule="evenodd"/></g><g><path d="M2976 1015C2976 1021.07 2971.07 1026 2965 1026 2958.93 1026 2954 1021.07 2954 1015 2954 1008.92 2958.93 1004 2965 1004 2971.07 1004 2976 1008.92 2976 1015Z" stroke="#0F9ED5" stroke-width="3.4375" stroke-linejoin="round" stroke-miterlimit="10" fill="#0F9ED5"/></g><g><text fill="#595959" font-family="Aptos Narrow,Aptos Narrow_MSFontService,sans-serif" font-weight="400" font-stretch="semi-condensed" font-size="41" transform="matrix(1 0 0 1 3018.53 1027)">StdSort</text></g><rect x="1766.5" y="84.5001" width="1650" height="998" stroke="#D9D9D9" stroke-width="3.4375" stroke-linejoin="round" stroke-miterlimit="10" fill="none"/></g></svg>